<mxfile host="Electron" modified="2024-07-19T21:21:11.123Z" agent="Mozilla/5.0 (X11; Linux x86_64) AppleWebKit/537.36 (KHTML, like Gecko) draw.io/24.6.4 Chrome/124.0.6367.207 Electron/30.0.6 Safari/537.36" etag="ITStheLPUhat9vT5iZtw" version="24.6.4" type="device">
  <diagram name="P치gina-1" id="6HlnU1b7RiQf60qFkdnA">
    <mxGraphModel dx="1147" dy="675" grid="1" gridSize="10" guides="1" tooltips="1" connect="1" arrows="1" fold="1" page="1" pageScale="1" pageWidth="827" pageHeight="1169" math="0" shadow="0">
      <root>
        <mxCell id="0" />
        <mxCell id="1" parent="0" />
        <mxCell id="hkaJS92JYXj9Rhmye12A-13" style="edgeStyle=orthogonalEdgeStyle;rounded=0;orthogonalLoop=1;jettySize=auto;html=1;entryX=1;entryY=0.5;entryDx=0;entryDy=0;exitX=1;exitY=0.5;exitDx=0;exitDy=0;" edge="1" parent="1" source="jHdx4B2DNFZuFp1QK5Sa-3" target="jHdx4B2DNFZuFp1QK5Sa-4">
          <mxGeometry relative="1" as="geometry" />
        </mxCell>
        <mxCell id="jHdx4B2DNFZuFp1QK5Sa-3" value="Juanito Shoes&amp;nbsp;&lt;div&gt;Aplicaci칩n&lt;/div&gt;" style="ellipse;whiteSpace=wrap;html=1;" parent="1" vertex="1">
          <mxGeometry x="302" y="520" width="236" height="220" as="geometry" />
        </mxCell>
        <mxCell id="hkaJS92JYXj9Rhmye12A-11" style="edgeStyle=orthogonalEdgeStyle;rounded=0;orthogonalLoop=1;jettySize=auto;html=1;entryX=0;entryY=0.5;entryDx=0;entryDy=0;exitX=0;exitY=0.5;exitDx=0;exitDy=0;" edge="1" parent="1" source="jHdx4B2DNFZuFp1QK5Sa-4" target="jHdx4B2DNFZuFp1QK5Sa-3">
          <mxGeometry relative="1" as="geometry">
            <Array as="points">
              <mxPoint x="280" y="330" />
              <mxPoint x="280" y="630" />
            </Array>
          </mxGeometry>
        </mxCell>
        <mxCell id="jHdx4B2DNFZuFp1QK5Sa-4" value="Usuario" style="rounded=0;whiteSpace=wrap;html=1;" parent="1" vertex="1">
          <mxGeometry x="360" y="300" width="120" height="60" as="geometry" />
        </mxCell>
        <mxCell id="hkaJS92JYXj9Rhmye12A-14" value="- Datos de inicio de sesi칩n&lt;div&gt;- Preferencias de perfil&lt;/div&gt;&lt;div&gt;- Seleccion de calzado&lt;/div&gt;&lt;div&gt;- Solicitud de pedido&lt;/div&gt;&lt;div&gt;- Consulta de historial de pedidos&lt;/div&gt;" style="text;html=1;align=left;verticalAlign=middle;resizable=0;points=[];autosize=1;strokeColor=none;fillColor=none;" vertex="1" parent="1">
          <mxGeometry x="80" y="420" width="200" height="90" as="geometry" />
        </mxCell>
        <mxCell id="hkaJS92JYXj9Rhmye12A-16" value="- Acceso a la cuenta&lt;div&gt;- Actualizacion de perfil&lt;/div&gt;&lt;div&gt;- Carrito de compras&lt;/div&gt;&lt;div&gt;- Confirmaci칩n de pedido&lt;br&gt;&lt;/div&gt;&lt;div&gt;- Detalles del historial de pedido&lt;/div&gt;" style="text;html=1;align=left;verticalAlign=middle;resizable=0;points=[];autosize=1;strokeColor=none;fillColor=none;" vertex="1" parent="1">
          <mxGeometry x="570" y="420" width="190" height="90" as="geometry" />
        </mxCell>
      </root>
    </mxGraphModel>
  </diagram>
</mxfile>
